<?xml version="1.0" standalone="no"?>
<!DOCTYPE svg PUBLIC "-//W3C//DTD SVG 20010904//EN"
 "http://www.w3.org/TR/2001/REC-SVG-20010904/DTD/svg10.dtd">
<svg version="1.0" xmlns="http://www.w3.org/2000/svg"
 width="110.000000pt" height="108.000000pt" viewBox="0 0 110.000000 108.000000"
 preserveAspectRatio="xMidYMid meet">

<g transform="translate(0.000000,108.000000) scale(0.100000,-0.100000)"
fill="#000000" stroke="none">
<path d="M0 540 l0 -540 550 0 550 0 0 540 0 540 -550 0 -550 0 0 -540z m694
384 c3 -9 6 -57 6 -107 0 -89 1 -92 32 -124 l32 -33 16 32 c18 37 29 43 53 26
15 -11 16 -18 6 -46 -8 -25 -8 -36 1 -47 19 -23 31 -19 81 31 36 36 51 45 68
39 32 -10 25 -41 -21 -91 l-41 -45 43 -44 c35 -36 41 -48 36 -69 -9 -37 -30
-32 -85 19 -26 25 -51 45 -55 45 -22 0 -76 -49 -82 -74 -3 -16 -30 -53 -58
-81 -41 -41 -63 -55 -104 -65 -47 -11 -98 -9 -136 6 -8 3 -16 -5 -20 -20 -9
-35 -33 -33 -79 5 -37 30 -46 56 -27 75 6 6 1 27 -15 59 -22 43 -25 60 -23
142 1 59 6 97 13 101 7 4 18 21 26 37 10 22 21 30 41 30 14 1 32 6 40 12 7 6
34 17 60 23 41 11 45 14 33 27 -13 12 -18 12 -45 -2 -23 -12 -35 -13 -50 -5
-42 22 -18 46 105 109 106 53 139 61 149 35z m-374 -129 c10 -12 9 -19 -4 -37
-87 -119 -106 -173 -106 -302 l0 -90 63 -57 c54 -49 60 -60 51 -76 -7 -10 -20
-17 -30 -16 -11 2 -29 -3 -42 -9 -41 -21 -50 -10 -137 176 -51 110 -51 136 -4
136 16 0 31 6 33 13 2 6 9 37 16 67 15 64 50 131 94 178 33 36 47 39 66 17z
m510 -460 c19 -14 38 -32 43 -41 9 -17 -8 -44 -28 -44 -23 0 -84 55 -85 76 0
42 22 44 70 9z"/>
<path d="M602 797 c-24 -25 -20 -37 10 -37 13 0 18 8 18 30 0 36 -1 36 -28 7z"/>
<path d="M485 681 c-45 -20 -70 -45 -60 -61 12 -19 31 -10 75 35 48 49 46 54
-15 26z"/>
<path d="M588 665 c4 -30 6 -33 23 -24 23 12 25 45 3 53 -27 10 -30 7 -26 -29z"/>
<path d="M688 514 c-2 -29 -8 -40 -22 -43 -25 -4 -45 23 -38 52 5 22 5 22 -22
-2 -17 -16 -24 -31 -20 -43 8 -25 -4 -58 -22 -58 -8 0 -31 15 -52 34 -45 41
-80 52 -104 34 -16 -12 -16 -15 -1 -46 41 -83 146 -115 233 -70 78 40 114 123
71 162 -19 17 -20 17 -23 -20z"/>
</g>
</svg>
